<?xml version="1.0" encoding="UTF-8" standalone="no"?>
<!-- Generator: Adobe Illustrator 16.0.0, SVG Export Plug-In . SVG Version: 6.00 Build 0)  -->

<svg
   xmlns:dc="http://purl.org/dc/elements/1.1/"
   xmlns:cc="http://creativecommons.org/ns#"
   xmlns:rdf="http://www.w3.org/1999/02/22-rdf-syntax-ns#"
   xmlns:svg="http://www.w3.org/2000/svg"
   xmlns="http://www.w3.org/2000/svg"
   xmlns:sodipodi="http://sodipodi.sourceforge.net/DTD/sodipodi-0.dtd"
   xmlns:inkscape="http://www.inkscape.org/namespaces/inkscape"
   version="1.1"
   id="Layer_1"
   x="0px"
   y="0px"
   width="26.703px"
   height="20.953px"
   viewBox="0 0 26.703 20.953"
   enable-background="new 0 0 26.703 20.953"
   xml:space="preserve"
   inkscape:version="0.91 r13725"
   sodipodi:docname="top2.svg"><metadata
   id="metadata9"><rdf:RDF><cc:Work
       rdf:about=""><dc:format>image/svg+xml</dc:format><dc:type
         rdf:resource="http://purl.org/dc/dcmitype/StillImage" /><dc:title></dc:title></cc:Work></rdf:RDF></metadata><defs
   id="defs7" /><sodipodi:namedview
   pagecolor="#ffffff"
   bordercolor="#666666"
   borderopacity="1"
   objecttolerance="10"
   gridtolerance="10"
   guidetolerance="10"
   inkscape:pageopacity="0"
   inkscape:pageshadow="2"
   inkscape:window-width="640"
   inkscape:window-height="480"
   id="namedview5"
   showgrid="false"
   inkscape:zoom="11.263304"
   inkscape:cx="11.797781"
   inkscape:cy="10.4765"
   inkscape:window-x="440"
   inkscape:window-y="111"
   inkscape:window-maximized="0"
   inkscape:current-layer="Layer_1" />
<path
   d="M 25.961,4.4160899 15.195,15.18109 c -0.018,0.019 -0.029,0.04 -0.048,0.059 -0.496,0.495 -1.146,0.742 -1.796,0.74 -0.649,0.002 -1.3,-0.245 -1.796,-0.74 -0.019,-0.019 -0.03,-0.04 -0.048,-0.059 L 0.742,4.4160899 c -0.989,-0.989 -0.989,-2.592 0,-3.582 0.989,-0.988 2.593,-0.988 3.582,0 l 9.027,9.028 9.027,-9.028 c 0.989,-0.988 2.593,-0.988 3.582,0 0.99,0.99 0.99,2.592 10e-4,3.582 z"
   id="path3"
   inkscape:connector-curvature="0"
   style="clip-rule:evenodd;fill:#ffffff;fill-rule:evenodd" />
</svg>